<?xml version="1.0" encoding="UTF-8"?>
<svg id="Layer_2" data-name="Layer 2" xmlns="http://www.w3.org/2000/svg" viewBox="0 0 37.2 38.75">
  <defs>
    <style>
      .cls-1 {
        fill: #fff;
      }
    </style>
  </defs>
  <g id="Layer_1-2" data-name="Layer 1">
    <path class="cls-1" d="M6.24,38.75c-3.49,0-6.24-2.75-6.24-6.3,0-1.09.29-2.23.8-3.32L12.76,3.78c1.09-2.35,3.26-3.78,5.78-3.78s4.75,1.43,5.9,3.83l12.02,25.64c.52.97.74,2.06.74,3.03,0,3.43-2.86,6.24-6.35,6.24-2.92,0-4.64-1.37-6.41-5.27h-11.68c-1.6,3.72-3.49,5.27-6.52,5.27ZM20.49,24.38l-1.95-4.58-1.95,4.58h3.89Z"/>
  </g>
</svg>