<?xml version="1.0" encoding="UTF-8"?>
<svg id="Layer_2" data-name="Layer 2" xmlns="http://www.w3.org/2000/svg" viewBox="0 0 30.05 38.18">
  <defs>
    <style>
      .cls-1 {
        fill: #fff;
      }
    </style>
  </defs>
  <g id="Layer_1-2" data-name="Layer 1">
    <path class="cls-1" d="M30.05,26.84c0,3.32-1.32,6.24-3.83,8.53-2.46,2.29-4.24,2.8-9.16,2.8H7.04c-2.75,0-4.01-.4-5.38-1.89-.74-.8-1.32-1.95-1.55-2.98-.06-.46-.11-.92-.11-3.38V6.47C.06,2.69,2.75,0,6.47,0h5.38c4.06,0,5.44.11,6.98.46,5.27,1.26,8.81,5.84,8.81,11.45,0,2.17-.4,3.49-1.77,5.84,3.03,2.92,4.18,5.44,4.18,9.1ZM12.53,14.77h1.49c1.77,0,2.35-.4,2.35-1.43,0-1.09-.69-1.49-2.46-1.49h-1.37v2.92ZM12.53,26.44h2.12c2.18,0,2.75-.34,2.75-1.49s-.8-1.6-2.8-1.6h-2.06v3.09Z"/>
  </g>
</svg>