<?xml version="1.0" encoding="UTF-8"?>
<svg id="Layer_2" data-name="Layer 2" xmlns="http://www.w3.org/2000/svg" viewBox="0 0 37.66 40.06">
  <defs>
    <style>
      .cls-1 {
        fill: #fff;
      }
    </style>
  </defs>
  <g id="Layer_1-2" data-name="Layer 1">
    <path class="cls-1" d="M33.54,35.03c-3.72,3.21-8.47,5.04-13.34,5.04C9.04,40.06,0,31.14,0,20.09S9.1,0,20.26,0c4.64,0,9.1,1.6,12.76,4.64,3.09,2.46,4.64,5.04,4.64,7.56,0,3.43-2.8,6.3-6.3,6.3-1.49,0-3.09-.63-3.95-1.55l-1.83-2c-1.37-1.49-3.38-2.29-5.44-2.29-4.18,0-7.5,3.26-7.5,7.44s3.32,7.44,7.44,7.44c2.06,0,4.12-.92,5.61-2.52l1.32-1.37c1.03-1.09,2.75-1.83,4.35-1.83,3.32,0,6.3,2.92,6.3,6.18,0,2.29-1.43,4.69-4.12,7.04Z"/>
  </g>
</svg>