<?xml version="1.0" encoding="UTF-8"?>
<svg id="Layer_2" data-name="Layer 2" xmlns="http://www.w3.org/2000/svg" viewBox="0 0 35.09 38.18">
  <defs>
    <style>
      .cls-1 {
        fill: #fff;
      }
    </style>
  </defs>
  <g id="Layer_1-2" data-name="Layer 1">
    <path class="cls-1" d="M14.94,0c5.72,0,10.13,1.55,13.85,4.87,4.01,3.55,6.3,8.76,6.3,14.19s-2.23,10.42-6.12,14.02c-2.46,2.29-5.67,3.95-8.99,4.64-1.55.29-3.83.46-6.47.46h-5.32c-2.98,0-4.18-.23-5.32-1.03-1.43-.92-2.23-1.95-2.63-3.43-.23-.86-.23-1.49-.23-4.12V8.59c0-3.21,0-3.55.29-4.41C1.2,1.43,3.55,0,7.21,0h7.73ZM12.59,26.44c4.35-.06,5.38-.23,6.87-1.26,1.89-1.37,3.09-3.72,3.09-6.07,0-2.8-1.6-5.38-4.06-6.58-1.2-.57-2.52-.8-4.87-.8h-1.03v14.71Z"/>
  </g>
</svg>