<?xml version="1.0" encoding="UTF-8"?>
<svg id="Layer_2" data-name="Layer 2" xmlns="http://www.w3.org/2000/svg" viewBox="0 0 25.76 38.18">
  <defs>
    <style>
      .cls-1 {
        fill: #fff;
      }
    </style>
  </defs>
  <g id="Layer_1-2" data-name="Layer 1">
    <path class="cls-1" d="M18.37,26.39c2.75,0,3.95.34,5.27,1.43,1.32,1.15,2.06,2.75,2.06,4.46s-.8,3.49-2.06,4.58c-1.26,1.03-2.35,1.32-5.21,1.32h-9.79c-2.92,0-3.72-.11-4.81-.52-1.95-.8-3.21-2.35-3.61-4.58-.17-.8-.23-1.15-.23-3.78V8.59c0-3.21.06-3.61.57-4.81.52-1.43,1.72-2.58,3.03-3.15,1.43-.57,1.72-.63,5.44-.63h7.56c3.61,0,3.95.06,4.81.29,2.63.69,4.35,2.86,4.35,5.49,0,1.83-.74,3.55-2.06,4.64-1.15.97-2.46,1.37-4.81,1.37h-6.3v2.63h4.98c3.09,0,5.09,1.83,5.09,4.52,0,1.43-.63,2.75-1.66,3.61-.97.74-1.89.97-3.89.97h-4.52v2.86h5.78Z"/>
  </g>
</svg>