<?xml version="1.0" encoding="UTF-8"?>
<svg id="Layer_2" data-name="Layer 2" xmlns="http://www.w3.org/2000/svg" viewBox="0 0 25.7 38.46">
  <defs>
    <style>
      .cls-1 {
        fill: #fff;
      }
    </style>
  </defs>
  <g id="Layer_1-2" data-name="Layer 1">
    <path class="cls-1" d="M12.59,29.59c0,3.72-.11,4.46-1.03,5.95-1.09,1.77-3.09,2.92-5.27,2.92-2.35,0-4.52-1.32-5.49-3.26-.69-1.43-.8-2.18-.8-5.67V7.5C0,4.12.74,2.4,2.75,1.09c.74-.52,1.89-.86,3.03-.97.52-.06,1.66-.11,3.32-.11h7.56c4.12,0,4.92.11,6.35.97,1.66.97,2.69,2.8,2.69,4.81,0,1.72-.8,3.55-2,4.64-1.2,1.03-2.46,1.37-4.75,1.37h-6.35v2.63h3.89c2.18,0,3.09.17,4.06.74,1.32.8,2.12,2.17,2.12,3.78,0,2.98-1.95,4.64-5.55,4.64h-4.52v6.01Z"/>
  </g>
</svg>