<?xml version="1.0" encoding="UTF-8"?>
<svg id="Layer_2" data-name="Layer 2" xmlns="http://www.w3.org/2000/svg" viewBox="0 0 36.01 40.06">
  <defs>
    <style>
      .cls-1 {
        fill: #fff;
      }
    </style>
  </defs>
  <g id="Layer_1-2" data-name="Layer 1">
    <path class="cls-1" d="M22.67,25.98c-3.38,0-5.38-1.72-5.38-4.58,0-3.03,2.12-4.64,6.12-4.58l4.12.06c4.41.11,5.61.46,6.87,1.95,1.14,1.37,1.66,3.09,1.6,5.55l-.06,3.26c-.11,3.15-.11,3.26-.4,4.18-.63,2-2.98,4.29-6.3,6.01-2.86,1.49-5.9,2.23-9.04,2.23C9.04,40.06,0,31.08,0,19.98S9.04,0,20.15,0c3.72,0,7.5,1.09,10.7,3.03,2.63,1.66,3.95,3.61,3.95,5.9,0,3.43-2.92,6.3-6.41,6.3-.57,0-1.32-.11-1.66-.29l-2.8-1.49c-1.37-.63-2.75-1.03-4.01-1.03-3.89,0-7.27,3.49-7.27,7.5s3.38,7.5,7.5,7.5c1.6,0,2.52-.34,4.35-1.43h-1.83Z"/>
  </g>
</svg>