<?xml version="1.0" encoding="UTF-8"?>
<svg id="Layer_2" data-name="Layer 2" xmlns="http://www.w3.org/2000/svg" viewBox="0 0 32.91 38.75">
  <defs>
    <style>
      .cls-1 {
        fill: #fff;
      }
    </style>
  </defs>
  <g id="Layer_1-2" data-name="Layer 1">
    <path class="cls-1" d="M12.65,30.62c-.06,3.15-.23,3.95-1.09,5.32-1.15,1.77-3.09,2.8-5.21,2.8s-4.12-1.03-5.27-2.8c-.86-1.37-1.09-2.46-1.09-5.32V7.61c0-2.69.29-3.83,1.32-5.15C2.52.92,4.35,0,6.3,0s3.95.97,5.09,2.46c1.03,1.37,1.26,2.18,1.26,5.44v5.38h7.67v-5.21c0-3.03.23-4.18,1.32-5.61,1.14-1.55,2.92-2.46,4.87-2.46s3.89.92,5.04,2.4c.97,1.26,1.37,2.75,1.37,5.21v23.12c0,2.63-.23,3.66-1.03,4.98-1.14,1.89-3.15,3.03-5.32,3.03-2,0-3.89-.92-5.04-2.52-.97-1.37-1.2-2.46-1.2-5.49v-5.49h-7.67v5.38Z"/>
  </g>
</svg>