<?xml version="1.0" encoding="UTF-8"?>
<svg id="Layer_2" data-name="Layer 2" xmlns="http://www.w3.org/2000/svg" viewBox="0 0 30.11 39.44">
  <defs>
    <style>
      .cls-1 {
        fill: #fff;
      }
    </style>
  </defs>
  <g id="Layer_1-2" data-name="Layer 1">
    <path class="cls-1" d="M17.46,8.41c0-3.55.17-4.35,1.2-5.78,1.09-1.6,3.15-2.63,5.15-2.63,2.12,0,4.18,1.09,5.27,2.8.86,1.37,1.03,2.12,1.03,5.61v13.22c0,5.78-.57,8.13-2.58,11.1-2.8,4.18-7.5,6.7-12.48,6.7-4.24,0-8.24-1.77-11.1-4.87-2.69-2.92-3.95-6.3-3.95-10.82,0-3.43.52-5.27,1.89-6.81,1.09-1.32,2.63-2,4.41-2,3.89,0,6.52,2.8,6.41,6.87v2.12c-.06,1.72.92,2.8,2.35,2.8,1.03,0,1.83-.57,2.23-1.49.17-.46.17-.86.17-2.8v-14.02Z"/>
  </g>
</svg>