<?xml version="1.0" encoding="UTF-8"?>
<svg id="Layer_2" data-name="Layer 2" xmlns="http://www.w3.org/2000/svg" viewBox="0 0 32.85 38.75">
  <defs>
    <style>
      .cls-1 {
        fill: #fff;
      }
    </style>
  </defs>
  <g id="Layer_1-2" data-name="Layer 1">
    <path class="cls-1" d="M19.69,2.92c1.26-1.89,3.09-2.92,5.21-2.92,3.43,0,6.35,2.92,6.35,6.3,0,1.2-.34,2.4-.97,3.32l-6.41,9.33,7.78,9.96c.8.97,1.2,2.12,1.2,3.43,0,3.49-2.86,6.41-6.3,6.41-1.77,0-3.49-.74-4.41-1.89l-9.44-11.96v6.58c0,4.41-2.52,7.27-6.3,7.27s-6.41-2.8-6.41-7.21V7.04C0,2.86,2.52,0,6.3,0c1.83,0,3.61.8,4.75,2.12,1.2,1.26,1.66,2.69,1.66,4.98v6.12l6.98-10.3Z"/>
  </g>
</svg>