<?xml version="1.0" encoding="UTF-8"?>
<svg id="Layer_2" data-name="Layer 2" xmlns="http://www.w3.org/2000/svg" viewBox="0 0 25.64 38.46">
  <defs>
    <style>
      .cls-1 {
        fill: #fff;
      }
    </style>
  </defs>
  <g id="Layer_1-2" data-name="Layer 1">
    <path class="cls-1" d="M18.77,26.67c2.12,0,3.32.34,4.46,1.14,1.49,1.09,2.4,2.86,2.4,4.69,0,1.66-.74,3.43-1.95,4.52-1.14,1.03-2.46,1.43-4.64,1.43H7.04c-2.52,0-4.18-.63-5.32-2-1.55-1.72-1.72-2.58-1.72-7.84V7.1C0,2.8,2.46,0,6.24,0c1.95,0,3.83.92,4.92,2.29,1.14,1.55,1.43,2.69,1.43,6.3v18.09h6.18Z"/>
  </g>
</svg>