<?xml version="1.0" encoding="UTF-8"?>
<svg id="Layer_2" data-name="Layer 2" xmlns="http://www.w3.org/2000/svg" viewBox="0 0 45.39 38.75">
  <defs>
    <style>
      .cls-1 {
        fill: #fff;
      }
    </style>
  </defs>
  <g id="Layer_1-2" data-name="Layer 1">
    <path class="cls-1" d="M28.96,3.38c.97-2,3.21-3.38,5.55-3.38,1.55,0,3.26.69,4.35,1.72s1.6,2.12,1.95,4.18l4.35,24.61c.17.8.23,1.55.23,2.12,0,3.43-2.75,6.12-6.18,6.12-3.21,0-5.72-1.95-6.24-4.81l-1.43-7.15-2.46,6.75c-1.26,3.43-3.49,5.21-6.47,5.21s-5.09-1.6-6.41-5.15l-2.52-6.81-1.03,6.07c-.63,3.66-3.03,5.9-6.3,5.9-3.72,0-6.35-2.86-6.35-6.87,0-.52.06-1.03.11-1.55L4.46,5.9C5.09,2.23,7.38,0,10.65,0c2.69,0,5.21,1.66,6.3,4.24l5.67,12.65,6.35-13.51Z"/>
  </g>
</svg>