<?xml version="1.0" encoding="UTF-8"?>
<svg id="Layer_2" data-name="Layer 2" xmlns="http://www.w3.org/2000/svg" viewBox="0 0 33.88 38.75">
  <defs>
    <style>
      .cls-1 {
        fill: #fff;
      }
    </style>
  </defs>
  <g id="Layer_1-2" data-name="Layer 1">
    <path class="cls-1" d="M21.29,7.73c0-2.52.23-3.66,1.14-4.98,1.09-1.66,3.09-2.75,5.15-2.75,1.89,0,3.61.86,4.81,2.29,1.09,1.37,1.49,2.69,1.49,5.04v23.35c0,3.03-.29,4.29-1.37,5.72-1.15,1.49-2.98,2.35-4.92,2.35s-3.66-.86-4.98-2.58l-9.96-12.76v8.01c0,2.52-.34,3.66-1.43,5.04-1.2,1.43-2.98,2.29-4.86,2.29s-3.83-.92-5.04-2.46c-1.03-1.43-1.32-2.58-1.32-5.38V6.75C0,2.69,2.63,0,6.58,0c1.83,0,3.26.74,4.69,2.52l10.02,12.31v-7.1Z"/>
  </g>
</svg>