<?xml version="1.0" encoding="UTF-8"?>
<svg id="Layer_2" data-name="Layer 2" xmlns="http://www.w3.org/2000/svg" viewBox="0 0 29.19 38.46">
  <defs>
    <style>
      .cls-1 {
        fill: #fff;
      }
    </style>
  </defs>
  <g id="Layer_1-2" data-name="Layer 1">
    <path class="cls-1" d="M12.65,31.19c0,4.35-2.52,7.27-6.3,7.27-2.12,0-4.12-1.09-5.27-2.86-.97-1.55-1.09-2.17-1.09-6.01V7.27C0,4.52.4,3.26,1.72,1.89,3.03.57,4.52,0,6.87,0h5.27c6.12,0,8.76.69,11.68,2.92,3.38,2.58,5.38,6.64,5.38,10.88s-2.06,8.3-5.55,10.93c-2.58,1.95-5.15,2.75-8.87,2.75h-2.12v3.72ZM12.65,15.8c3.03.17,4.18-.4,4.18-2.12,0-1.26-1.15-2-3.03-2h-1.14v4.12Z"/>
  </g>
</svg>