<?xml version="1.0" encoding="UTF-8"?>
<svg id="Layer_2" data-name="Layer 2" xmlns="http://www.w3.org/2000/svg" viewBox="0 0 41.44 40.06">
  <defs>
    <style>
      .cls-1 {
        fill: #fff;
      }
    </style>
  </defs>
  <g id="Layer_1-2" data-name="Layer 1">
    <path class="cls-1" d="M41.44,33.71c0,3.49-2.8,6.35-6.24,6.35-1.95,0-3.15-.57-5.38-2.58-3.95,2-6.12,2.58-9.67,2.58C8.99,40.06,0,31.02,0,19.98S8.93,0,20.15,0s20.03,8.87,20.03,19.98c0,2.86-.4,4.69-1.77,8.24,2.18,1.95,3.03,3.43,3.03,5.49ZM20.03,27.47c4.29,0,7.61-3.32,7.61-7.56s-3.38-7.56-7.61-7.56-7.5,3.38-7.5,7.56,3.26,7.56,7.5,7.56Z"/>
  </g>
</svg>