<?xml version="1.0" encoding="UTF-8"?>
<svg id="Layer_2" data-name="Layer 2" xmlns="http://www.w3.org/2000/svg" viewBox="0 0 29.3 38.46">
  <defs>
    <style>
      .cls-1 {
        fill: #fff;
      }
    </style>
  </defs>
  <g id="Layer_1-2" data-name="Layer 1">
    <path class="cls-1" d="M28.1,28.22c.8,1.26,1.2,2.75,1.2,4.06,0,3.49-2.75,6.18-6.3,6.18-2.23,0-4.06-1.03-5.21-2.92l-5.21-8.64v5.21c0,3.61-2.69,6.35-6.18,6.35-1.89,0-3.78-.86-4.92-2.29-1.03-1.32-1.49-2.98-1.49-5.38V7.27C0,4.52.57,2.98,2.06,1.66,3.49.4,4.75,0,7.78,0h5.27c3.09,0,4.46.17,6.12.57,5.9,1.66,10.02,6.98,10.02,13.16,0,3.66-1.14,6.47-4.06,9.73l2.98,4.75ZM12.59,15.8h1.37c1.89.06,2.86-.63,2.86-2s-1.03-2.12-2.92-2.06c-.29,0-.74,0-1.32-.06v4.12Z"/>
  </g>
</svg>