<?xml version="1.0" encoding="UTF-8"?>
<svg id="Layer_2" data-name="Layer 2" xmlns="http://www.w3.org/2000/svg" viewBox="0 0 28.67 40.06">
  <defs>
    <style>
      .cls-1 {
        fill: #fff;
      }
    </style>
  </defs>
  <g id="Layer_1-2" data-name="Layer 1">
    <path class="cls-1" d="M0,30.39c0-3.21,2.52-5.72,5.72-5.72,1.54,0,2.86.52,4.46,1.83,2.75,2.12,3.09,2.35,4.01,2.35.97,0,1.6-.69,1.6-1.66,0-.69-.29-1.14-.97-1.6-.34-.23-.52-.34-2.52-1.09-1.03-.34-2.06-.69-3.09-1.09C3.66,21.46.92,17.86.92,12.53.92,5.09,6.64,0,14.94,0c6.87,0,12.25,3.66,12.25,8.36,0,3.03-2.06,5.21-4.92,5.21-1.72,0-3.09-.57-5.21-2.17-1.32-1.09-1.95-1.37-2.63-1.37-.8,0-1.49.69-1.49,1.49,0,1.14.8,1.66,3.78,2.63,3.26.97,6.35,2.52,8.13,4.01,2.35,1.95,3.83,5.38,3.83,8.99s-1.32,6.75-3.61,9.1c-2.58,2.58-6.01,3.83-10.7,3.83-8.13,0-14.37-4.24-14.37-9.67Z"/>
  </g>
</svg>