<?xml version="1.0" encoding="UTF-8"?>
<svg id="Layer_2" data-name="Layer 2" xmlns="http://www.w3.org/2000/svg" viewBox="0 0 32.22 38.46">
  <defs>
    <style>
      .cls-1 {
        fill: #fff;
      }
    </style>
  </defs>
  <g id="Layer_1-2" data-name="Layer 1">
    <path class="cls-1" d="M6.53,11.73c-2.17,0-3.61-.52-4.75-1.66-1.14-1.2-1.77-2.63-1.77-4.18C0,3.72,1.43,1.43,3.26.63c1.32-.57,1.83-.63,6.81-.63h12.71q3.55,0,4.29.11c3.03.4,5.15,2.75,5.15,5.72,0,1.66-.8,3.38-2.06,4.52-.97.92-2.58,1.37-4.86,1.37h-2.8v19c0,2.29-.29,3.55-1.09,4.86-1.14,1.83-3.03,2.86-5.21,2.86s-4.01-.97-5.21-2.63c-.86-1.32-1.09-2.4-1.09-4.98V11.73h-3.38Z"/>
  </g>
</svg>