<?xml version="1.0" encoding="UTF-8"?>
<svg id="Layer_2" data-name="Layer 2" xmlns="http://www.w3.org/2000/svg" viewBox="0 0 32.17 39.44">
  <defs>
    <style>
      .cls-1 {
        fill: #fff;
      }
    </style>
  </defs>
  <g id="Layer_1-2" data-name="Layer 1">
    <path class="cls-1" d="M12.65,22.49c0,2.75,1.26,4.41,3.43,4.41s3.43-1.6,3.43-4.24V7.44c0-2.8.23-3.66,1.37-5.04,1.2-1.49,2.98-2.4,4.87-2.4s3.78.92,4.92,2.29c1.2,1.43,1.49,2.58,1.49,6.01v13.56c0,5.15-1.26,8.87-4.01,11.96-3.09,3.55-7.55,5.61-12.08,5.61-5.09,0-9.96-2.52-12.99-6.64-2.35-3.21-3.09-5.9-3.09-10.93v-13.45C0,4.81.23,3.89,1.32,2.46,2.52.97,4.46,0,6.3,0c1.72,0,3.49.8,4.64,2,1.26,1.32,1.72,2.75,1.72,5.44v15.05Z"/>
  </g>
</svg>