<?xml version="1.0" encoding="UTF-8"?>
<svg id="Layer_2" data-name="Layer 2" xmlns="http://www.w3.org/2000/svg" viewBox="0 0 52.83 38.75">
  <defs>
    <style>
      .cls-1 {
        fill: #fff;
      }
    </style>
  </defs>
  <g id="Layer_1-2" data-name="Layer 1">
    <path class="cls-1" d="M20.26,4.75c1.09-3.21,3.09-4.75,6.12-4.75s5.09,1.6,6.24,4.92l3.55,10.13,4.18-10.7c1.03-2.63,3.43-4.35,6.18-4.35,3.55,0,6.3,2.75,6.3,6.24,0,.74-.17,1.49-.74,2.98l-9.04,24.61c-1.2,3.32-3.21,4.92-6.07,4.92s-5.04-1.66-6.12-4.81l-4.24-12.53-4.18,12.48c-1.03,3.15-3.15,4.87-6.01,4.87s-4.92-1.55-5.95-4.35L.74,8.93c-.46-1.09-.74-2.29-.74-2.92C0,2.69,2.86,0,6.35,0c2.92,0,5.09,1.72,6.47,5.09l4.06,9.67,3.38-10.02Z"/>
  </g>
</svg>