<?xml version="1.0" encoding="UTF-8"?>
<svg id="Layer_2" data-name="Layer 2" xmlns="http://www.w3.org/2000/svg" viewBox="0 0 33.08 38.75">
  <defs>
    <style>
      .cls-1 {
        fill: #fff;
      }
    </style>
  </defs>
  <g id="Layer_1-2" data-name="Layer 1">
    <path class="cls-1" d="M3.32,11.73C1.49,9.27.8,7.78.8,6.3.8,2.92,3.78,0,7.21,0c2.06,0,3.83.97,5.32,2.86l4.06,5.38,3.83-4.81c1.95-2.52,3.43-3.43,5.55-3.43,3.49,0,6.41,2.86,6.41,6.24,0,1.37-.69,3.03-2,4.81l-5.84,7.73,7.16,9.56c.86,1.15,1.37,2.63,1.37,4.18,0,3.43-2.75,6.24-6.18,6.24-2,0-3.83-.92-5.15-2.69l-5.15-6.75-5.15,6.7c-1.55,1.95-3.03,2.75-5.15,2.75-3.43,0-6.3-2.86-6.3-6.24,0-1.49.51-3.09,1.49-4.29l7.15-9.44-5.32-7.04Z"/>
  </g>
</svg>