<?xml version="1.0" encoding="UTF-8"?>
<svg id="Layer_2" data-name="Layer 2" xmlns="http://www.w3.org/2000/svg" viewBox="0 0 32.45 38.75">
  <defs>
    <style>
      .cls-1 {
        fill: #fff;
      }
    </style>
  </defs>
  <g id="Layer_1-2" data-name="Layer 1">
    <path class="cls-1" d="M22.44,30.96c0,2.35-.29,3.55-1.09,4.81-1.09,1.83-3.21,2.98-5.27,2.98s-4.12-1.14-5.27-2.92c-.8-1.32-1.09-2.4-1.09-4.87v-8.47L1.26,9.96c-.86-1.2-1.26-2.52-1.26-3.83C0,2.75,2.8,0,6.24,0c2.17,0,4.18,1.09,5.55,2.98l4.41,5.9,4.64-6.07c1.43-1.77,3.32-2.8,5.32-2.8,3.43,0,6.3,2.86,6.3,6.24,0,1.26-.4,2.52-1.14,3.66l-8.87,12.76v8.3Z"/>
  </g>
</svg>