<?xml version="1.0" encoding="UTF-8"?>
<svg id="Layer_2" data-name="Layer 2" xmlns="http://www.w3.org/2000/svg" viewBox="0 0 32.17 38.18">
  <defs>
    <style>
      .cls-1 {
        fill: #fff;
      }
    </style>
  </defs>
  <g id="Layer_1-2" data-name="Layer 1">
    <path class="cls-1" d="M6.24,11.68c-3.72,0-6.24-2.35-6.24-5.78,0-1.77.69-3.32,1.95-4.41C3.21.46,4.58,0,6.81,0h16.83c2.8,0,4.01.29,5.32,1.2,1.54,1.03,2.46,2.8,2.46,4.64,0,1.49-.34,2.35-1.83,4.41l-11.28,16.08h6.3c2.63,0,3.89.29,5.21,1.26,1.49,1.09,2.35,2.75,2.35,4.69,0,1.83-.86,3.61-2.17,4.64-1.26.97-2.4,1.26-5.15,1.26H6.3c-3.66,0-6.3-2.46-6.3-5.95,0-1.26.46-2.52,1.2-3.66L13.05,11.68h-6.81Z"/>
  </g>
</svg>